<svg width="192" height="72" xmlns="http://www.w3.org/2000/svg" xmlns:xlink="http://www.w3.org/1999/xlink" overflow="hidden"><defs><clipPath id="clip0"><rect x="362" y="486" width="192" height="72"/></clipPath></defs><g clip-path="url(#clip0)" transform="translate(-362 -486)"><path d="M362 487 413 487 413 523.207 413 523.417 413 523.417 412.467 527.818C410.122 538.193 399.837 546 387.473 546 375.163 546 364.878 538.193 362.48 527.818L362 523.417 362 523.417 362 523.207 362 487Z" fill="#FFFFFF" fill-rule="evenodd"/><path d="M362 487 413 487 413 511.627 407.138 511.627 407.138 512.099C407.138 515.4 407.138 518.701 407.138 522.054 407.138 522.683 407.085 523.364 406.978 523.993 406.818 525.722 405.859 526.508 404.1 526.456 402.608 526.403 401.596 525.512 401.489 523.993 401.382 523.102 401.382 522.159 401.329 521.268 401.276 520.22 401.223 519.12 401.009 518.124 400.157 514.142 397.332 511.784 393.229 511.627 389.818 511.522 386.354 511.627 382.944 511.627 382.837 511.627 382.784 511.627 382.677 511.679L382.677 530.805 383.317 530.805C385.875 530.805 388.433 530.805 391.044 530.805 391.95 530.752 392.909 530.7 393.815 530.595 394.881 530.438 395.947 530.176 396.959 529.599 395.414 528.08 394.881 526.194 394.668 524.045 394.082 524.988 393.282 525.565 392.323 525.722 391.15 525.879 389.925 525.827 388.752 525.932L388.752 516.552C389.552 516.552 390.298 516.5 391.044 516.552 393.815 516.762 395.147 518.124 395.307 520.849 395.414 522.159 395.307 523.469 395.414 524.726 395.68 527.713 397.279 529.914 400.37 530.752 402.821 531.433 405.379 531.433 407.884 530.805 410.176 530.281 411.774 528.971 412.574 526.822L412.467 527.818C410.122 538.193 399.837 546 387.473 546 375.163 546 364.878 538.193 362.48 527.818L362 523.417 362 523.417 362 523.207 362 503.82 377.774 507.907C378.734 508.169 379.693 507.645 379.906 506.702 380.172 505.811 379.639 504.868 378.68 504.606L362 500.204 362 497.951 377.774 502.091C378.734 502.353 379.693 501.829 379.906 500.885 380.172 499.995 379.639 498.999 378.68 498.79L362 494.388 362 492.187 377.774 496.327C378.734 496.589 379.693 496.012 379.906 495.122 380.172 494.178 379.639 493.235 378.68 492.973L362 488.572 362 487ZM396.586 511.627 401.329 511.627 401.329 516.762C400.37 514.352 398.878 512.623 396.586 511.627Z" fill="#D61B3C" fill-rule="evenodd"/><path d="M365.767 551.611 365.175 551.611 365.175 555.5 364.691 555.5 364.691 554.111 364.691 554.111C364.637 554.167 364.583 554.222 364.476 554.278 364.422 554.278 364.368 554.333 364.26 554.333 364.153 554.389 364.099 554.444 363.991 554.444 363.884 554.444 363.776 554.5 363.668 554.5 363.453 554.5 363.238 554.444 363.13 554.333 362.969 554.278 362.807 554.167 362.754 554 362.592 553.889 362.538 553.722 362.484 553.556 362.431 553.389 362.377 553.222 362.377 553 362.484 553 362.592 552.944 362.7 552.944 362.754 552.889 362.807 552.833 362.861 552.778 362.915 552.722 362.969 552.667 363.023 552.556 363.023 552.5 363.023 552.444 363.023 552.389L363.023 552.222C363.023 552.167 363.023 552.111 362.969 552.056 362.969 551.944 362.915 551.889 362.915 551.833 362.861 551.722 362.807 551.667 362.754 551.611L362 551.611 362 551.167 365.767 551.167 365.767 551.611ZM363.292 551.611C363.346 551.722 363.399 551.833 363.453 552 363.453 552.111 363.507 552.278 363.507 552.389 363.507 552.5 363.453 552.556 363.453 552.667 363.453 552.778 363.399 552.833 363.346 552.944 363.292 553 363.238 553.111 363.13 553.167 363.076 553.222 362.969 553.278 362.861 553.278 362.915 553.444 362.915 553.556 363.023 553.611 363.076 553.722 363.13 553.833 363.184 553.889 363.238 553.944 363.346 553.944 363.399 554 363.507 554 363.615 554 363.722 554 363.776 554 363.884 554 363.991 554 364.099 553.944 364.153 553.944 364.26 553.889 364.368 553.833 364.422 553.778 364.476 553.722 364.583 553.667 364.637 553.611 364.691 553.556L364.691 551.611 363.292 551.611ZM367.759 551.611 366.629 551.611 366.629 555.5 366.198 555.5 366.198 551.611 365.767 551.611 365.767 551.167 367.759 551.167 367.759 551.611ZM366.575 551.167 366.144 551.167 365.929 550.778C365.821 550.556 365.714 550.389 365.66 550.222 365.552 550.111 365.498 550.056 365.391 550 365.337 549.889 365.229 549.833 365.175 549.833 365.068 549.833 365.014 549.833 364.906 549.833L364.368 549.833 364.368 549.333 364.906 549.333C364.96 549.333 365.122 549.389 365.175 549.389 365.283 549.389 365.337 549.444 365.445 549.444 365.498 549.5 365.606 549.556 365.66 549.667 365.767 549.778 365.821 549.833 365.929 550 365.983 550.111 366.09 550.278 366.198 550.444 366.306 550.667 366.413 550.889 366.521 551.111L366.575 551.167ZM371.473 551.611 370.881 551.611 370.881 555.5 370.396 555.5 370.396 551.611 369.104 551.611 369.104 553.833 369.104 553.944C369.104 554 369.104 554 369.104 554.056 369.104 554.111 369.051 554.167 369.051 554.167 368.997 554.167 368.943 554.222 368.943 554.222 368.889 554.222 368.835 554.167 368.781 554.167 368.674 554.111 368.62 554.056 368.566 554L368.405 553.833C368.297 553.778 368.297 553.722 368.243 553.611 368.189 553.556 368.136 553.5 368.136 553.389 368.082 553.333 368.082 553.278 368.082 553.222 368.082 553.167 368.082 553.111 368.136 553.111 368.136 553.056 368.189 553.056 368.189 553 368.243 553 368.297 553 368.351 553L368.566 553 368.674 553 368.674 551.611 367.759 551.611 367.759 551.167 371.473 551.167 371.473 551.611ZM372.603 553.111C372.495 553.111 372.441 553.056 372.388 553 372.334 552.944 372.28 552.889 372.28 552.778 372.28 552.667 372.334 552.611 372.388 552.556 372.441 552.5 372.495 552.444 372.603 552.444 372.657 552.444 372.764 552.5 372.818 552.556 372.872 552.611 372.926 552.667 372.926 552.778 372.926 552.889 372.872 552.944 372.818 553 372.764 553.056 372.657 553.111 372.603 553.111ZM372.603 555.556C372.495 555.556 372.441 555.5 372.388 555.444 372.334 555.389 372.28 555.333 372.28 555.222 372.28 555.167 372.334 555.056 372.388 555 372.441 554.944 372.495 554.889 372.603 554.889 372.657 554.889 372.764 554.944 372.818 555 372.872 555.056 372.926 555.167 372.926 555.222 372.926 555.333 372.872 555.389 372.818 555.444 372.764 555.5 372.657 555.556 372.603 555.556ZM380.461 551.611 377.501 551.611 377.501 552.722 377.501 552.722C377.608 552.611 377.716 552.5 377.877 552.444 377.985 552.333 378.146 552.278 378.308 552.278 378.469 552.278 378.577 552.333 378.685 552.389 378.792 552.444 378.9 552.5 379.008 552.611 379.061 552.722 379.169 552.833 379.169 552.944 379.223 553.111 379.277 553.222 379.277 553.389 379.277 553.556 379.223 553.778 379.169 553.889 379.115 554.056 379.008 554.167 378.954 554.278 378.846 554.444 378.738 554.556 378.631 554.611 378.523 554.722 378.362 554.778 378.254 554.889L378.039 554.444C378.039 554.389 378.093 554.333 378.146 554.333 378.2 554.278 378.254 554.278 378.308 554.222 378.362 554.167 378.469 554.111 378.523 554.056 378.577 554 378.631 553.944 378.685 553.833 378.685 553.778 378.738 553.722 378.792 553.611 378.792 553.556 378.846 553.444 378.846 553.389 378.846 553.278 378.792 553.222 378.792 553.167 378.738 553.056 378.685 553 378.685 552.944 378.631 552.889 378.577 552.833 378.523 552.833 378.469 552.778 378.362 552.778 378.308 552.778 378.2 552.778 378.093 552.778 378.039 552.833 377.931 552.889 377.877 552.944 377.77 553 377.716 553.111 377.608 553.222 377.608 553.278 377.554 553.389 377.501 553.444 377.501 553.556L377.501 555.5 377.016 555.5 377.016 554.389 377.016 554.389C376.962 554.389 376.962 554.444 376.909 554.444 376.855 554.5 376.801 554.556 376.747 554.556 376.693 554.611 376.639 554.611 376.532 554.667 376.478 554.667 376.37 554.667 376.263 554.667 376.101 554.667 375.94 554.667 375.832 554.611 375.671 554.5 375.563 554.444 375.455 554.333 375.348 554.222 375.24 554.056 375.186 553.944 375.132 553.778 375.132 553.611 375.132 553.444 375.132 553.278 375.132 553.111 375.186 552.944 375.24 552.833 375.348 552.722 375.455 552.611 375.509 552.5 375.617 552.444 375.724 552.389 375.886 552.278 375.994 552.278 376.155 552.278 376.263 552.278 376.316 552.278 376.424 552.333 376.532 552.333 376.586 552.389 376.639 552.444 376.747 552.444 376.801 552.5 376.855 552.556 376.909 552.556 376.962 552.611 377.016 552.667L377.016 552.667 377.016 551.611 374.702 551.611 374.702 551.167 380.461 551.167 380.461 551.611ZM376.209 552.722C376.101 552.722 375.994 552.778 375.94 552.833 375.832 552.833 375.778 552.889 375.724 552.944 375.671 553.056 375.617 553.111 375.617 553.222 375.563 553.278 375.563 553.389 375.563 553.5 375.563 553.556 375.563 553.667 375.617 553.778 375.671 553.833 375.671 553.944 375.724 554 375.832 554.056 375.886 554.111 375.94 554.167 376.047 554.222 376.155 554.222 376.263 554.222 376.316 554.222 376.424 554.222 376.532 554.167 376.586 554.167 376.693 554.111 376.747 554 376.855 553.944 376.909 553.833 376.962 553.722 377.016 553.611 377.016 553.5 377.016 553.333L377.016 553.167C376.962 553.111 376.909 553.056 376.855 553 376.801 552.944 376.747 552.889 376.639 552.889 376.586 552.833 376.532 552.778 376.478 552.778 376.37 552.778 376.316 552.722 376.209 552.722ZM384.874 551.611 383.744 551.611 383.744 555.5 383.313 555.5 383.313 553.889 381.752 553.889 381.752 554.222C381.752 554.278 381.752 554.333 381.752 554.333 381.752 554.444 381.752 554.444 381.699 554.5 381.699 554.5 381.699 554.556 381.645 554.556 381.645 554.556 381.591 554.556 381.537 554.556 381.483 554.556 381.43 554.556 381.376 554.556 381.322 554.5 381.268 554.444 381.214 554.444 381.16 554.333 381.053 554.278 380.999 554.222 380.945 554.167 380.891 554.111 380.837 554 380.837 553.944 380.784 553.889 380.73 553.833 380.73 553.778 380.676 553.722 380.676 553.611 380.676 553.611 380.676 553.556 380.73 553.556 380.73 553.5 380.73 553.5 380.784 553.5 380.837 553.444 380.837 553.444 380.891 553.444L380.999 553.444 381.322 553.444 381.322 551.611 380.461 551.611 380.461 551.167 384.874 551.167 384.874 551.611ZM381.752 551.611 381.752 553.444 383.313 553.444 383.313 551.611 381.752 551.611ZM384.282 549.833C384.174 549.778 384.121 549.722 384.067 549.667 383.959 549.611 383.905 549.611 383.798 549.611 383.636 549.611 383.529 549.667 383.475 549.722 383.367 549.833 383.313 550 383.313 550.167 383.313 550.222 383.313 550.333 383.313 550.444 383.367 550.5 383.367 550.556 383.421 550.667 383.475 550.778 383.475 550.833 383.529 550.889 383.582 551 383.636 551.111 383.69 551.167L383.206 551.167C383.098 551 383.044 550.833 382.99 550.667 382.936 550.5 382.883 550.333 382.883 550.167 382.883 550 382.936 549.833 382.936 549.722 382.99 549.611 383.098 549.5 383.152 549.389 383.259 549.333 383.313 549.222 383.475 549.222 383.582 549.167 383.69 549.167 383.798 549.167 383.959 549.167 384.121 549.167 384.228 549.222 384.336 549.333 384.497 549.444 384.605 549.556L384.282 549.833ZM389.126 551.167 389.126 551.611 388.534 551.611 388.534 555.5 388.049 555.5 388.049 553.556 386.435 553.556C386.327 553.611 386.22 553.667 386.058 553.667L386.058 553.667C386.273 553.944 386.435 554.222 386.65 554.5 386.919 554.778 387.135 555 387.404 555.222L387.081 555.556C386.973 555.444 386.812 555.278 386.65 555.167 386.543 555 386.381 554.889 386.273 554.722 386.112 554.556 386.004 554.444 385.897 554.278 385.789 554.111 385.681 553.944 385.574 553.833 385.52 553.667 385.412 553.5 385.358 553.389 385.305 553.222 385.197 553.111 385.143 552.944L385.574 552.778C385.574 552.833 385.628 552.944 385.628 552.944 385.681 553 385.735 553.111 385.735 553.111 385.789 553.167 385.843 553.167 385.897 553.167 385.897 553.222 385.95 553.222 386.004 553.222 386.112 553.222 386.22 553.167 386.273 553.056 386.327 552.944 386.381 552.833 386.381 552.611 386.381 552.556 386.381 552.444 386.327 552.333 386.327 552.222 386.273 552.167 386.273 552.056 386.22 551.944 386.22 551.889 386.166 551.833 386.112 551.722 386.112 551.667 386.058 551.611L384.874 551.611 384.874 551.167 389.126 551.167ZM388.049 551.611 386.596 551.611C386.65 551.778 386.704 551.944 386.758 552.111 386.812 552.278 386.812 552.5 386.812 552.667 386.812 552.722 386.812 552.833 386.812 552.889 386.758 552.944 386.758 553.056 386.758 553.111L386.758 553.111 388.049 553.111 388.049 551.611ZM387.511 555.556C387.619 555.5 387.78 555.444 387.942 555.389 388.049 555.333 388.211 555.333 388.319 555.333 388.426 555.333 388.534 555.333 388.642 555.389 388.749 555.444 388.803 555.444 388.911 555.556 388.964 555.611 389.018 555.667 389.072 555.778 389.126 555.889 389.126 555.944 389.126 556.056 389.126 556.222 389.126 556.333 389.072 556.444 389.018 556.556 388.964 556.611 388.857 556.722 388.749 556.778 388.642 556.889 388.48 556.889 388.372 556.944 388.211 557 387.996 557 387.78 557 387.619 556.944 387.457 556.889 387.296 556.833 387.135 556.778 386.973 556.667 386.865 556.556 386.758 556.5 386.65 556.389 386.543 556.278 386.435 556.167 386.381 556.056L386.65 555.778C386.758 555.889 386.812 555.944 386.919 556.056 387.027 556.167 387.135 556.222 387.242 556.333 387.35 556.389 387.457 556.444 387.565 556.5 387.673 556.5 387.834 556.556 387.996 556.556 388.103 556.556 388.211 556.5 388.319 556.5 388.426 556.444 388.48 556.444 388.534 556.389 388.588 556.333 388.642 556.278 388.642 556.222 388.695 556.222 388.695 556.167 388.695 556.056 388.695 556 388.695 555.889 388.588 555.833 388.534 555.778 388.426 555.778 388.319 555.778 388.211 555.778 388.103 555.778 388.049 555.833 387.942 555.833 387.78 555.889 387.727 555.944L387.511 555.556ZM395.638 551.611 393.27 551.611 393.27 552.722 393.27 552.722C393.378 552.611 393.485 552.5 393.647 552.444 393.808 552.333 393.97 552.278 394.131 552.278 394.239 552.278 394.4 552.333 394.508 552.389 394.616 552.444 394.723 552.5 394.777 552.611 394.885 552.722 394.939 552.833 394.992 552.944 395.046 553.111 395.046 553.222 395.046 553.389 395.046 553.556 395.046 553.778 394.992 553.889 394.885 554.056 394.831 554.167 394.723 554.278 394.67 554.444 394.508 554.556 394.4 554.611 394.293 554.722 394.185 554.778 394.078 554.889L393.808 554.444C393.862 554.389 393.916 554.333 393.97 554.333 394.024 554.278 394.078 554.278 394.131 554.222 394.185 554.167 394.239 554.111 394.293 554.056 394.347 554 394.4 553.944 394.454 553.833 394.508 553.778 394.508 553.722 394.562 553.611 394.562 553.556 394.616 553.444 394.616 553.389 394.616 553.278 394.562 553.222 394.562 553.167 394.562 553.056 394.508 553 394.454 552.944 394.4 552.889 394.347 552.833 394.293 552.833 394.239 552.778 394.185 552.778 394.078 552.778 394.024 552.778 393.916 552.778 393.808 552.833 393.701 552.889 393.647 552.944 393.593 553 393.485 553.111 393.432 553.222 393.378 553.278 393.324 553.389 393.324 553.444 393.27 553.556L393.27 555.5 392.786 555.5 392.786 554.389 392.786 554.389C392.786 554.389 392.732 554.444 392.678 554.444 392.678 554.5 392.624 554.556 392.517 554.556 392.463 554.611 392.409 554.611 392.355 554.667 392.248 554.667 392.14 554.667 392.086 554.667 391.925 554.667 391.763 554.667 391.602 554.611 391.44 554.5 391.333 554.444 391.279 554.333 391.117 554.222 391.064 554.056 391.01 553.944 390.956 553.778 390.902 553.611 390.902 553.444 390.902 553.278 390.956 553.111 391.01 552.944 391.064 552.833 391.117 552.722 391.225 552.611 391.333 552.5 391.44 552.444 391.548 552.389 391.656 552.278 391.817 552.278 391.978 552.278 392.032 552.278 392.14 552.278 392.194 552.333 392.301 552.333 392.409 552.389 392.463 552.444 392.517 552.444 392.624 552.5 392.678 552.556 392.732 552.556 392.786 552.611 392.786 552.667L392.786 552.667 392.786 551.611 390.471 551.611 390.471 551.167 395.638 551.167 395.638 551.611ZM392.032 552.722C391.925 552.722 391.817 552.778 391.709 552.833 391.656 552.833 391.602 552.889 391.494 552.944 391.494 553.056 391.44 553.111 391.386 553.222 391.386 553.278 391.386 553.389 391.386 553.5 391.386 553.556 391.386 553.667 391.386 553.778 391.44 553.833 391.494 553.944 391.548 554 391.602 554.056 391.656 554.111 391.763 554.167 391.817 554.222 391.925 554.222 392.032 554.222 392.14 554.222 392.194 554.222 392.301 554.167 392.409 554.167 392.463 554.111 392.57 554 392.624 553.944 392.678 553.833 392.732 553.722 392.786 553.611 392.84 553.5 392.84 553.333L392.84 553.167C392.786 553.111 392.732 553.056 392.678 553 392.624 552.944 392.517 552.889 392.463 552.889 392.409 552.833 392.301 552.778 392.248 552.778 392.14 552.778 392.086 552.722 392.032 552.722ZM397.684 551.611 396.553 551.611 396.553 555.5 396.069 555.5 396.069 551.611 395.638 551.611 395.638 551.167 397.684 551.167 397.684 551.611ZM396.499 551.167 396.177 551.167 396.069 551.056C395.907 550.944 395.8 550.833 395.692 550.722 395.531 550.611 395.477 550.556 395.369 550.5 395.315 550.444 395.208 550.389 395.154 550.389 395.1 550.333 394.992 550.333 394.939 550.278 394.885 550.278 394.831 550.278 394.777 550.278L394.616 550.278 394.078 550.278 394.078 549.833 394.562 549.833C394.67 549.833 394.723 549.833 394.777 549.889 394.885 549.889 394.939 549.889 394.992 549.944 395.046 549.944 395.154 550 395.208 550.056 395.262 550.056 395.315 550.111 395.423 550.167 395.477 550.222 395.585 550.333 395.692 550.389 395.746 550.5 395.854 550.611 396.015 550.722L396.015 550.722C395.907 550.5 395.8 550.389 395.746 550.222 395.638 550.111 395.531 550 395.477 549.889 395.423 549.778 395.369 549.722 395.315 549.667 395.262 549.611 395.208 549.556 395.154 549.5 395.1 549.5 395.046 549.444 394.992 549.444 394.885 549.444 394.831 549.444 394.777 549.444L394.239 549.444 394.239 549 394.777 549C394.885 549 394.992 549 395.046 549.056 395.154 549.056 395.208 549.111 395.315 549.167 395.369 549.222 395.423 549.278 395.531 549.389 395.585 549.5 395.692 549.611 395.8 549.778 395.854 549.889 395.961 550.111 396.069 550.278 396.177 550.5 396.338 550.778 396.446 551.056L396.499 551.167ZM399.513 553.167C399.46 553.167 399.406 553.167 399.406 553.167L399.298 553.167C399.137 553.167 399.029 553.167 398.868 553.111 398.76 553.056 398.652 552.944 398.545 552.889 398.491 552.778 398.437 552.667 398.383 552.556 398.329 552.444 398.329 552.278 398.329 552.167 398.329 552.056 398.329 551.944 398.329 551.889 398.383 551.778 398.437 551.667 398.491 551.611L398.491 551.611 397.684 551.611 397.684 551.167 402.797 551.167 402.797 551.611 401.666 551.611 401.666 555.5 401.182 555.5 401.182 551.611 400.159 551.611 400.159 551.611C400.213 551.667 400.213 551.722 400.267 551.778 400.321 551.833 400.375 551.944 400.375 552 400.428 552.111 400.428 552.167 400.482 552.278 400.482 552.389 400.482 552.444 400.482 552.556 400.482 552.667 400.482 552.833 400.428 553 400.375 553.111 400.321 553.278 400.213 553.389 400.159 553.5 400.052 553.611 399.89 553.722 399.783 553.833 399.675 553.944 399.513 554L399.513 554C399.621 554.111 399.729 554.222 399.836 554.278 399.944 554.444 400.052 554.5 400.159 554.611 400.267 554.778 400.375 554.889 400.428 555 400.536 555.056 400.59 555.222 400.698 555.278L400.375 555.556C400.321 555.5 400.213 555.389 400.159 555.278 400.052 555.167 399.998 555.056 399.836 554.944 399.729 554.833 399.621 554.722 399.513 554.611 399.406 554.444 399.244 554.333 399.137 554.278 399.029 554.278 398.975 554.333 398.921 554.333 398.814 554.333 398.76 554.333 398.706 554.333 398.598 554.333 398.491 554.333 398.437 554.333 398.383 554.278 398.276 554.278 398.222 554.222 398.168 554.167 398.114 554.167 398.114 554.111 398.06 554 398.06 553.944 398.06 553.889 398.06 553.778 398.06 553.667 398.168 553.611 398.222 553.556 398.383 553.5 398.491 553.5 398.598 553.5 398.706 553.5 398.814 553.556 398.921 553.611 399.029 553.667 399.137 553.722 399.191 553.722 399.244 553.722 399.298 553.667 399.352 553.611 399.46 553.611 399.513 553.556 399.567 553.5 399.675 553.444 399.729 553.389 399.783 553.333 399.836 553.222 399.89 553.167 399.944 553.056 399.998 553 399.998 552.889 400.052 552.778 400.052 552.667 400.052 552.556 400.052 552.444 400.052 552.333 399.998 552.222 399.998 552.111 399.89 552 399.836 551.889 399.783 551.833 399.729 551.778 399.621 551.722 399.513 551.667 399.406 551.611 399.298 551.611 399.191 551.611 399.083 551.611 399.029 551.667 398.975 551.722 398.921 551.722 398.868 551.778 398.814 551.833 398.814 551.889 398.814 551.944 398.76 552.056 398.76 552.111 398.76 552.167 398.76 552.222 398.76 552.278 398.814 552.389 398.814 552.444 398.868 552.5 398.921 552.556 398.975 552.611 399.029 552.667 399.137 552.667 399.191 552.722 399.244 552.778 399.406 552.778 399.406 552.778 399.46 552.722 399.513 552.722L399.513 553.167ZM407.587 551.611 406.403 551.611 406.403 555.5 405.918 555.5 405.918 552.778C405.864 552.722 405.757 552.722 405.649 552.722 405.595 552.722 405.488 552.722 405.434 552.778 405.38 552.833 405.326 552.833 405.272 552.889 405.219 552.944 405.219 553 405.165 553.111 405.165 553.167 405.165 553.278 405.165 553.333L405.165 553.444 405.165 553.556 404.734 553.556C404.734 553.444 404.68 553.333 404.68 553.222 404.68 553.111 404.626 553 404.573 552.944 404.573 552.889 404.519 552.833 404.465 552.778 404.411 552.722 404.304 552.667 404.196 552.667 404.142 552.667 404.088 552.722 403.981 552.778 403.927 552.778 403.873 552.833 403.819 552.889 403.819 552.944 403.765 553.056 403.765 553.167 403.712 553.222 403.712 553.333 403.712 553.444 403.712 553.611 403.765 553.833 403.819 554 403.873 554.167 404.034 554.333 404.142 554.5 404.25 554.611 404.411 554.778 404.573 554.833 404.734 554.944 404.896 555.056 405.057 555.167L404.842 555.556C404.788 555.556 404.68 555.5 404.573 555.444 404.465 555.333 404.357 555.278 404.25 555.167 404.142 555.111 404.034 555 403.873 554.889 403.765 554.778 403.658 554.611 403.55 554.444 403.496 554.333 403.389 554.167 403.335 553.944 403.281 553.778 403.227 553.611 403.227 553.389 403.227 553.222 403.281 553.056 403.281 552.944 403.389 552.778 403.442 552.667 403.496 552.556 403.604 552.444 403.712 552.389 403.819 552.333 403.927 552.278 404.034 552.222 404.196 552.222 404.304 552.222 404.411 552.222 404.465 552.278 404.573 552.278 404.626 552.333 404.68 552.389 404.734 552.444 404.788 552.5 404.842 552.556 404.842 552.611 404.896 552.667 404.896 552.667L404.949 552.667C404.949 552.611 405.003 552.556 405.057 552.5 405.111 552.444 405.165 552.389 405.219 552.389 405.272 552.333 405.38 552.278 405.434 552.278 405.488 552.278 405.541 552.222 405.595 552.222 405.649 552.222 405.757 552.278 405.811 552.278 405.864 552.278 405.864 552.278 405.918 552.333L405.918 551.611 402.797 551.611 402.797 551.167 407.587 551.167 407.587 551.611ZM411.516 551.611 410.924 551.611 410.924 555.5 410.439 555.5 410.439 553.889 408.878 553.889 408.878 554.222 408.878 554.333C408.878 554.444 408.878 554.444 408.878 554.5 408.825 554.5 408.825 554.556 408.825 554.556 408.771 554.556 408.717 554.556 408.663 554.556 408.609 554.556 408.555 554.556 408.502 554.556 408.448 554.5 408.394 554.444 408.34 554.444 408.286 554.333 408.233 554.278 408.179 554.222 408.125 554.167 408.017 554.111 408.017 554 407.963 553.944 407.91 553.889 407.91 553.833 407.856 553.778 407.856 553.722 407.856 553.611 407.856 553.611 407.856 553.556 407.856 553.556 407.856 553.5 407.91 553.5 407.91 553.5 407.963 553.444 407.963 553.444 408.017 553.444L408.125 553.444 408.448 553.444 408.448 551.611 407.587 551.611 407.587 551.167 411.516 551.167 411.516 551.611ZM408.878 551.611 408.878 553.444 410.439 553.444 410.439 551.611 408.878 551.611ZM411.731 556.889 410.601 555.833 410.439 555.5 410.924 555.5 412 556.556 411.731 556.889Z" fill="#333132" fill-rule="evenodd"/><path d="M428 517.58 428 494.313 436.323 494.313C444.645 494.313 448.78 498.042 448.78 505.658 448.78 509.282 447.667 512.17 445.388 514.376 443.108 516.477 440.087 517.58 436.323 517.58L428 517.58ZM433.248 498.567 433.248 513.326 435.899 513.326C438.178 513.326 439.98 512.643 441.306 511.277 442.631 509.912 443.267 508.074 443.267 505.71 443.267 503.504 442.631 501.718 441.306 500.458 440.034 499.25 438.178 498.567 435.899 498.567L433.248 498.567ZM466.168 517.58 461.291 517.58 461.291 515.164 461.185 515.164C460.072 517.055 458.375 518 456.202 518 454.559 518 453.286 517.527 452.385 516.634 451.431 515.689 450.954 514.481 450.954 512.958 450.954 509.702 452.915 507.863 456.732 507.338L461.291 506.76C461.291 504.922 460.284 504.082 458.322 504.082 456.308 504.082 454.399 504.66 452.597 505.815L452.597 501.929C453.339 501.613 454.293 501.246 455.566 500.983 456.785 500.668 457.951 500.51 458.958 500.51 463.782 500.51 466.168 502.926 466.168 507.653L466.168 517.58ZM461.291 510.805 461.291 509.702 458.269 510.122C456.573 510.279 455.725 511.067 455.725 512.38 455.725 512.958 455.937 513.431 456.361 513.798 456.732 514.166 457.262 514.376 458.004 514.376 458.958 514.376 459.754 514.008 460.337 513.326 460.973 512.695 461.291 511.855 461.291 510.805ZM481.223 505.605C480.587 505.29 479.845 505.08 478.997 505.08 477.883 505.08 477.035 505.5 476.399 506.288 475.763 507.128 475.392 508.231 475.392 509.597L475.392 517.58 470.25 517.58 470.25 500.983 475.392 500.983 475.392 504.082 475.498 504.082C476.293 501.771 477.777 500.668 479.898 500.668 480.481 500.668 480.852 500.721 481.223 500.878L481.223 505.605ZM482.707 517.16 482.707 513.01C483.609 513.483 484.404 513.903 485.252 514.113 486.153 514.376 486.895 514.481 487.69 514.481 488.539 514.481 489.281 514.376 489.811 514.113 490.341 513.903 490.606 513.483 490.606 513.01 490.606 512.643 490.5 512.38 490.288 512.17 490.023 511.96 489.758 511.75 489.334 511.592 488.963 511.435 488.539 511.33 488.115 511.172 487.637 511.015 487.266 510.857 486.789 510.752 486.153 510.49 485.57 510.174 485.04 509.912 484.563 509.597 484.139 509.334 483.768 508.966 483.45 508.546 483.131 508.126 483.025 507.601 482.813 507.128 482.707 506.55 482.707 505.868 482.707 504.922 482.919 504.134 483.344 503.452 483.715 502.769 484.298 502.244 484.934 501.771 485.623 501.351 486.418 501.088 487.319 500.878 488.168 500.616 489.122 500.51 490.076 500.51 490.818 500.51 491.507 500.616 492.302 500.721 493.098 500.826 493.84 501.036 494.529 501.193L494.529 505.185C493.893 504.817 493.257 504.502 492.461 504.292 491.719 504.187 490.977 504.082 490.288 504.082 489.917 504.082 489.599 504.082 489.281 504.134 489.016 504.187 488.751 504.24 488.539 504.397 488.274 504.502 488.115 504.66 487.955 504.817 487.849 505.027 487.796 505.237 487.796 505.447 487.796 505.763 487.902 505.973 488.061 506.235 488.274 506.445 488.539 506.603 488.857 506.76 489.175 506.918 489.546 507.076 489.864 507.181 490.288 507.338 490.659 507.443 491.03 507.601 491.719 507.811 492.355 508.074 492.885 508.336 493.469 508.651 493.946 508.966 494.37 509.334 494.741 509.702 495.059 510.174 495.271 510.7 495.483 511.225 495.589 511.803 495.589 512.538 495.589 513.483 495.377 514.324 494.953 515.059 494.529 515.689 493.893 516.267 493.257 516.74 492.514 517.16 491.666 517.475 490.765 517.685 489.811 517.895 488.857 518 487.849 518 485.994 518 484.298 517.685 482.707 517.16ZM514.673 517.58 509.531 517.58 509.531 508.126C509.531 505.71 508.577 504.502 506.827 504.502 505.926 504.502 505.184 504.817 504.601 505.5 504.018 506.183 503.7 507.076 503.7 508.126L503.7 517.58 498.558 517.58 498.558 493 503.7 493 503.7 503.452 503.806 503.452C505.078 501.508 506.774 500.51 509.001 500.51 512.765 500.51 514.673 502.821 514.673 507.338L514.673 517.58ZM532.697 517.58 527.767 517.58 527.767 515.164 527.714 515.164C526.601 517.055 524.957 518 522.731 518 521.087 518 519.868 517.527 518.914 516.634 518.013 515.689 517.483 514.481 517.483 512.958 517.483 509.702 519.444 507.863 523.314 507.338L527.82 506.76C527.82 504.922 526.866 504.082 524.851 504.082 522.89 504.082 520.981 504.66 519.179 505.815L519.179 501.929C519.921 501.613 520.875 501.246 522.148 500.983 523.367 500.668 524.533 500.51 525.54 500.51 530.311 500.51 532.697 502.926 532.697 507.653L532.697 517.58ZM527.82 510.805 527.82 509.702 524.798 510.122C523.102 510.279 522.307 511.067 522.307 512.38 522.307 512.958 522.466 513.431 522.89 513.798 523.314 514.166 523.844 514.376 524.586 514.376 525.487 514.376 526.335 514.008 526.919 513.326 527.555 512.695 527.82 511.855 527.82 510.805ZM553 517.58 547.805 517.58 547.805 508.336C547.805 505.763 546.904 504.502 545.048 504.502 544.147 504.502 543.405 504.817 542.822 505.5 542.239 506.183 541.974 507.076 541.974 508.126L541.974 517.58 536.779 517.58 536.779 500.983 541.974 500.983 541.974 503.557 542.027 503.557C543.299 501.561 545.048 500.51 547.434 500.51 551.145 500.51 553 502.874 553 507.391L553 517.58Z" fill="#333132" fill-rule="evenodd"/><path d="M438.92 533.513C438.92 537.838 437.065 540 433.301 540 429.749 540 428 537.892 428 533.73L428 524.216 429.431 524.216 429.431 533.622C429.431 535.297 429.749 536.595 430.439 537.405 431.075 538.27 432.135 538.649 433.513 538.649 436.164 538.649 437.489 537.027 437.489 533.73L437.489 524.216 438.92 524.216 438.92 533.513ZM454.718 539.73 446.289 527.297C446.183 527.135 446.077 526.973 445.971 526.811 445.865 526.649 445.812 526.487 445.706 526.324L445.653 526.324C445.706 526.432 445.706 526.649 445.706 526.865 445.706 527.081 445.706 527.405 445.706 527.73L445.706 539.73 444.327 539.73 444.327 524.216 445.865 524.216 454.134 536.487C454.293 536.703 454.399 536.865 454.506 537.027 454.612 537.243 454.718 537.351 454.771 537.513L454.824 537.513C454.824 537.297 454.771 537.027 454.771 536.703 454.771 536.432 454.771 536.108 454.771 535.73L454.771 524.216 456.202 524.216 456.202 539.73 454.718 539.73ZM463.199 539.73 461.768 539.73 461.768 524.216 463.199 524.216 463.199 539.73ZM474.014 539.73 472.635 539.73 467.122 524.216 468.712 524.216 473.006 536.595C473.059 536.811 473.165 537.081 473.218 537.297 473.271 537.513 473.324 537.784 473.324 538.054L473.377 538.054C473.43 537.838 473.483 537.622 473.536 537.351 473.589 537.135 473.695 536.865 473.802 536.595L478.254 524.216 479.792 524.216 474.014 539.73ZM483.715 539.73 483.715 524.216 491.136 524.216 491.136 525.568 485.146 525.568 485.146 531.243 490.659 531.243 490.659 532.541 485.146 532.541 485.146 538.432 491.454 538.432 491.454 539.73 483.715 539.73ZM504.548 539.73 502.268 535.297C502.056 534.811 501.844 534.487 501.632 534.162 501.42 533.892 501.155 533.622 500.943 533.459 500.731 533.297 500.466 533.135 500.254 533.081 499.989 533.027 499.671 532.973 499.353 532.973L497.71 532.973 497.71 539.73 496.278 539.73 496.278 524.216 500.678 524.216C501.208 524.216 501.791 524.324 502.321 524.487 502.852 524.649 503.329 524.919 503.753 525.243 504.177 525.622 504.495 526 504.76 526.541 504.972 527.027 505.131 527.622 505.131 528.324 505.131 528.865 505.025 529.351 504.866 529.838 504.707 530.27 504.495 530.703 504.177 531.027 503.859 531.405 503.541 531.73 503.064 531.946 502.64 532.216 502.162 532.378 501.632 532.487L501.632 532.541C501.844 532.649 502.056 532.757 502.215 532.865 502.374 533.027 502.534 533.189 502.693 533.405 502.852 533.568 503.011 533.784 503.17 534.054 503.329 534.324 503.488 534.595 503.647 534.919L506.191 539.73 504.548 539.73ZM497.71 525.568 497.71 531.676 500.201 531.676C500.731 531.676 501.208 531.568 501.632 531.459 502.056 531.297 502.374 531.081 502.693 530.811 503.011 530.541 503.223 530.162 503.382 529.784 503.541 529.405 503.647 528.919 503.647 528.432 503.647 527.568 503.382 526.865 502.799 526.324 502.215 525.838 501.42 525.568 500.307 525.568L497.71 525.568ZM509.849 537.459C510.114 537.622 510.379 537.784 510.697 537.946 511.015 538.108 511.333 538.27 511.651 538.378 511.969 538.432 512.288 538.541 512.606 538.595 512.924 538.649 513.242 538.649 513.56 538.649 514.673 538.649 515.574 538.432 516.104 538 516.687 537.568 516.953 536.919 516.953 536.054 516.953 535.622 516.899 535.297 516.793 534.973 516.634 534.649 516.422 534.378 516.157 534.108 515.892 533.838 515.521 533.568 515.097 533.297 514.673 533.081 514.143 532.757 513.56 532.432 512.924 532.054 512.341 531.73 511.916 531.405 511.439 531.081 511.068 530.757 510.75 530.432 510.485 530.108 510.273 529.73 510.114 529.351 509.955 528.973 509.902 528.487 509.902 528 509.902 527.405 510.061 526.811 510.326 526.324 510.538 525.838 510.909 525.405 511.333 525.081 511.81 524.703 512.341 524.432 512.924 524.27 513.507 524.054 514.143 524 514.832 524 515.998 524 517.005 524.162 517.801 524.487L517.801 526.054C516.899 525.568 515.892 525.297 514.673 525.297 514.196 525.297 513.772 525.351 513.401 525.459 512.977 525.568 512.659 525.73 512.341 525.946 512.076 526.162 511.81 526.432 511.651 526.757 511.492 527.081 511.386 527.459 511.386 527.838 511.386 528.27 511.439 528.595 511.545 528.919 511.651 529.189 511.863 529.459 512.128 529.73 512.394 530 512.712 530.27 513.136 530.487 513.56 530.757 514.09 531.027 514.673 531.405 515.309 531.73 515.839 532.054 516.316 532.378 516.793 532.703 517.218 533.081 517.536 533.405 517.854 533.784 518.066 534.162 518.225 534.541 518.384 534.973 518.437 535.405 518.437 535.892 518.437 536.541 518.331 537.135 518.066 537.676 517.854 538.162 517.483 538.595 517.059 538.973 516.581 539.297 516.051 539.568 515.468 539.73 514.832 539.892 514.196 540 513.454 540 513.189 540 512.924 539.946 512.606 539.892 512.234 539.892 511.916 539.838 511.598 539.73 511.227 539.676 510.909 539.568 510.591 539.459 510.326 539.351 510.061 539.243 509.849 539.135L509.849 537.459ZM524.692 539.73 523.261 539.73 523.261 524.216 524.692 524.216 524.692 539.73ZM534.605 525.568 534.605 539.73 533.227 539.73 533.227 525.568 528.827 525.568 528.827 524.216 539.005 524.216 539.005 525.568 534.605 525.568ZM548.017 533.892 548.017 539.73 546.639 539.73 546.639 533.946 541.868 524.216 543.458 524.216 546.904 531.459C546.957 531.568 547.01 531.676 547.116 531.838 547.169 532.054 547.275 532.27 547.328 532.487L547.381 532.487C547.434 532.378 547.487 532.216 547.54 532.054 547.646 531.892 547.752 531.676 547.858 531.459L551.463 524.216 553 524.216 548.017 533.892Z" fill="#333132" fill-rule="evenodd"/></g></svg>